<mxfile host="app.diagrams.net" agent="Mozilla/5.0 (X11; Linux x86_64; rv:139.0) Gecko/20100101 Firefox/139.0" version="27.0.9">
  <diagram id="lFnnfL0ZU50raHwZNyp_" name="Page-1">
    <mxGraphModel dx="815" dy="473" grid="1" gridSize="10" guides="1" tooltips="1" connect="1" arrows="1" fold="1" page="1" pageScale="1" pageWidth="850" pageHeight="1100" math="0" shadow="0">
      <root>
        <mxCell id="0" />
        <mxCell id="1" parent="0" />
        <mxCell id="IMqzC0dm7pwFGwkoJkQH-4" value="" style="rounded=0;whiteSpace=wrap;html=1;" vertex="1" parent="1">
          <mxGeometry x="265" y="280" width="90" height="45" as="geometry" />
        </mxCell>
        <mxCell id="tqQRholDofP9-vdfFMWt-4" value="" style="rounded=0;whiteSpace=wrap;html=1;" parent="1" vertex="1">
          <mxGeometry x="310" y="265" width="90" height="45" as="geometry" />
        </mxCell>
        <mxCell id="7DW4IX4cOBPBgaY2yPGB-29" value="" style="rounded=0;whiteSpace=wrap;html=1;" parent="1" vertex="1">
          <mxGeometry x="180" width="390" height="170" as="geometry" />
        </mxCell>
        <mxCell id="7DW4IX4cOBPBgaY2yPGB-1" value="DB" style="shape=cylinder3;whiteSpace=wrap;html=1;boundedLbl=1;backgroundOutline=1;size=15;" parent="1" vertex="1">
          <mxGeometry x="610" y="240" width="60" height="80" as="geometry" />
        </mxCell>
        <mxCell id="7DW4IX4cOBPBgaY2yPGB-2" value="" style="shape=document;whiteSpace=wrap;html=1;boundedLbl=1;" parent="1" vertex="1">
          <mxGeometry x="80" y="262.5" width="80" height="70" as="geometry" />
        </mxCell>
        <mxCell id="7DW4IX4cOBPBgaY2yPGB-3" value="" style="rounded=0;whiteSpace=wrap;html=1;fillColor=#fff2cc;strokeColor=#d6b656;" parent="1" vertex="1">
          <mxGeometry x="200" y="10" width="360" height="50" as="geometry" />
        </mxCell>
        <mxCell id="7DW4IX4cOBPBgaY2yPGB-4" value="" style="rounded=0;whiteSpace=wrap;html=1;fillColor=#d5e8d4;strokeColor=#82b366;" parent="1" vertex="1">
          <mxGeometry x="200" y="75" width="80" height="80" as="geometry" />
        </mxCell>
        <mxCell id="7DW4IX4cOBPBgaY2yPGB-5" value="" style="rounded=0;whiteSpace=wrap;html=1;fillColor=#e1d5e7;strokeColor=#9673a6;" parent="1" vertex="1">
          <mxGeometry x="320" y="85" width="120" height="60" as="geometry" />
        </mxCell>
        <mxCell id="7DW4IX4cOBPBgaY2yPGB-6" value="" style="rounded=0;whiteSpace=wrap;html=1;fillColor=#ffe6cc;strokeColor=#d79b00;" parent="1" vertex="1">
          <mxGeometry x="480" y="80" width="80" height="40" as="geometry" />
        </mxCell>
        <mxCell id="7DW4IX4cOBPBgaY2yPGB-7" value="" style="whiteSpace=wrap;html=1;aspect=fixed;fillColor=#dae8fc;strokeColor=#6c8ebf;" parent="1" vertex="1">
          <mxGeometry x="600" y="80" width="80" height="80" as="geometry" />
        </mxCell>
        <mxCell id="7DW4IX4cOBPBgaY2yPGB-10" value="" style="rounded=0;whiteSpace=wrap;html=1;" parent="1" vertex="1">
          <mxGeometry x="355" y="250" width="90" height="45" as="geometry" />
        </mxCell>
        <mxCell id="7DW4IX4cOBPBgaY2yPGB-11" value="Controller" style="text;html=1;align=center;verticalAlign=middle;whiteSpace=wrap;rounded=0;" parent="1" vertex="1">
          <mxGeometry x="350" y="100" width="60" height="30" as="geometry" />
        </mxCell>
        <mxCell id="7DW4IX4cOBPBgaY2yPGB-12" value="Parser" style="text;html=1;strokeColor=none;fillColor=none;align=center;verticalAlign=middle;whiteSpace=wrap;rounded=0;" parent="1" vertex="1">
          <mxGeometry x="210" y="100" width="60" height="30" as="geometry" />
        </mxCell>
        <mxCell id="7DW4IX4cOBPBgaY2yPGB-13" value="Datapool" style="text;html=1;strokeColor=none;fillColor=none;align=center;verticalAlign=middle;whiteSpace=wrap;rounded=0;" parent="1" vertex="1">
          <mxGeometry x="495" y="72.5" width="50" height="55" as="geometry" />
        </mxCell>
        <mxCell id="7DW4IX4cOBPBgaY2yPGB-14" value="DB Service" style="text;html=1;strokeColor=none;fillColor=none;align=center;verticalAlign=middle;whiteSpace=wrap;rounded=0;" parent="1" vertex="1">
          <mxGeometry x="610" y="90" width="60" height="30" as="geometry" />
        </mxCell>
        <mxCell id="7DW4IX4cOBPBgaY2yPGB-15" value="Graphical User Interface" style="text;html=1;strokeColor=none;fillColor=none;align=center;verticalAlign=middle;whiteSpace=wrap;rounded=0;" parent="1" vertex="1">
          <mxGeometry x="310" y="20" width="140" height="30" as="geometry" />
        </mxCell>
        <mxCell id="7DW4IX4cOBPBgaY2yPGB-16" value="Configuration" style="text;html=1;strokeColor=none;fillColor=none;align=center;verticalAlign=middle;whiteSpace=wrap;rounded=0;" parent="1" vertex="1">
          <mxGeometry x="90" y="271.5" width="60" height="30" as="geometry" />
        </mxCell>
        <mxCell id="7DW4IX4cOBPBgaY2yPGB-18" value="" style="endArrow=none;html=1;rounded=0;entryX=0.5;entryY=1;entryDx=0;entryDy=0;exitX=0.5;exitY=0;exitDx=0;exitDy=0;startArrow=classic;startFill=1;" parent="1" source="7DW4IX4cOBPBgaY2yPGB-5" target="7DW4IX4cOBPBgaY2yPGB-3" edge="1">
          <mxGeometry width="50" height="50" relative="1" as="geometry">
            <mxPoint x="350" y="230" as="sourcePoint" />
            <mxPoint x="400" y="180" as="targetPoint" />
          </mxGeometry>
        </mxCell>
        <mxCell id="7DW4IX4cOBPBgaY2yPGB-19" value="" style="endArrow=none;html=1;rounded=0;exitX=0;exitY=0.5;exitDx=0;exitDy=0;startArrow=classic;startFill=1;entryX=1;entryY=0.25;entryDx=0;entryDy=0;" parent="1" source="7DW4IX4cOBPBgaY2yPGB-6" target="7DW4IX4cOBPBgaY2yPGB-5" edge="1">
          <mxGeometry width="50" height="50" relative="1" as="geometry">
            <mxPoint x="350" y="230" as="sourcePoint" />
            <mxPoint x="400" y="180" as="targetPoint" />
          </mxGeometry>
        </mxCell>
        <mxCell id="7DW4IX4cOBPBgaY2yPGB-22" value="" style="endArrow=none;html=1;rounded=0;entryX=1.003;entryY=0.861;entryDx=0;entryDy=0;exitX=0.013;exitY=0.675;exitDx=0;exitDy=0;startArrow=classic;startFill=1;entryPerimeter=0;exitPerimeter=0;" parent="1" source="7DW4IX4cOBPBgaY2yPGB-7" target="7DW4IX4cOBPBgaY2yPGB-5" edge="1">
          <mxGeometry width="50" height="50" relative="1" as="geometry">
            <mxPoint x="350" y="230" as="sourcePoint" />
            <mxPoint x="400" y="180" as="targetPoint" />
            <Array as="points" />
          </mxGeometry>
        </mxCell>
        <mxCell id="7DW4IX4cOBPBgaY2yPGB-27" value="" style="endArrow=none;html=1;rounded=0;entryX=0.5;entryY=1;entryDx=0;entryDy=0;startArrow=classic;startFill=1;" parent="1" source="7DW4IX4cOBPBgaY2yPGB-1" target="7DW4IX4cOBPBgaY2yPGB-7" edge="1">
          <mxGeometry width="50" height="50" relative="1" as="geometry">
            <mxPoint x="370" y="230" as="sourcePoint" />
            <mxPoint x="420" y="180" as="targetPoint" />
          </mxGeometry>
        </mxCell>
        <mxCell id="7DW4IX4cOBPBgaY2yPGB-28" value="" style="endArrow=classic;html=1;rounded=0;entryX=0;entryY=0.5;entryDx=0;entryDy=0;exitX=0.75;exitY=0;exitDx=0;exitDy=0;" parent="1" source="7DW4IX4cOBPBgaY2yPGB-2" target="7DW4IX4cOBPBgaY2yPGB-4" edge="1">
          <mxGeometry width="50" height="50" relative="1" as="geometry">
            <mxPoint x="370" y="230" as="sourcePoint" />
            <mxPoint x="420" y="180" as="targetPoint" />
            <Array as="points">
              <mxPoint x="140" y="115" />
            </Array>
          </mxGeometry>
        </mxCell>
        <mxCell id="7DW4IX4cOBPBgaY2yPGB-30" value="&lt;div&gt;Intens-Gen&lt;/div&gt;" style="rounded=0;whiteSpace=wrap;html=1;fillColor=#f5f5f5;fontColor=#333333;strokeColor=#666666;" parent="1" vertex="1">
          <mxGeometry x="71" y="52.5" width="80" height="40" as="geometry" />
        </mxCell>
        <mxCell id="7DW4IX4cOBPBgaY2yPGB-32" value="" style="endArrow=classic;html=1;rounded=0;exitX=0.5;exitY=1;exitDx=0;exitDy=0;entryX=0.375;entryY=-0.014;entryDx=0;entryDy=0;entryPerimeter=0;" parent="1" source="7DW4IX4cOBPBgaY2yPGB-30" target="7DW4IX4cOBPBgaY2yPGB-2" edge="1">
          <mxGeometry width="50" height="50" relative="1" as="geometry">
            <mxPoint x="370" y="230" as="sourcePoint" />
            <mxPoint x="420" y="180" as="targetPoint" />
          </mxGeometry>
        </mxCell>
        <mxCell id="7DW4IX4cOBPBgaY2yPGB-34" value="&lt;div style=&quot;font-size: 11px;&quot;&gt;SpringBoot&lt;/div&gt;&lt;div style=&quot;font-size: 11px;&quot;&gt;JPA&lt;br&gt;&lt;/div&gt;" style="text;html=1;strokeColor=none;fillColor=none;align=center;verticalAlign=middle;whiteSpace=wrap;rounded=0;" parent="1" vertex="1">
          <mxGeometry x="610" y="130" width="60" height="30" as="geometry" />
        </mxCell>
        <mxCell id="7DW4IX4cOBPBgaY2yPGB-35" value="MSSQL&lt;br&gt;PostgreSQL&lt;br&gt;..." style="text;html=1;strokeColor=none;fillColor=none;align=center;verticalAlign=middle;whiteSpace=wrap;rounded=0;fontSize=11;" parent="1" vertex="1">
          <mxGeometry x="610" y="330" width="60" height="30" as="geometry" />
        </mxCell>
        <mxCell id="AacaUoHCDb95vY7VXvAr-1" value="REST" style="text;html=1;strokeColor=none;fillColor=none;align=center;verticalAlign=middle;whiteSpace=wrap;rounded=0;" parent="1" vertex="1">
          <mxGeometry x="490" y="135" width="60" height="25" as="geometry" />
        </mxCell>
        <mxCell id="zrCdVp1b5vs9OAvNw22L-2" value="" style="rounded=0;whiteSpace=wrap;html=1;fillColor=#dae8fc;strokeColor=#6c8ebf;" parent="1" vertex="1">
          <mxGeometry x="230" y="182.5" width="300" height="40" as="geometry" />
        </mxCell>
        <mxCell id="zrCdVp1b5vs9OAvNw22L-3" value="API Gateway" style="text;html=1;align=center;verticalAlign=middle;whiteSpace=wrap;rounded=0;" parent="1" vertex="1">
          <mxGeometry x="355" y="187.5" width="60" height="30" as="geometry" />
        </mxCell>
        <mxCell id="zrCdVp1b5vs9OAvNw22L-11" value="" style="endArrow=classic;html=1;rounded=0;exitX=0.933;exitY=1;exitDx=0;exitDy=0;exitPerimeter=0;" parent="1" edge="1">
          <mxGeometry width="50" height="50" relative="1" as="geometry">
            <mxPoint x="378.9599999999998" y="145" as="sourcePoint" />
            <mxPoint x="379" y="180" as="targetPoint" />
          </mxGeometry>
        </mxCell>
        <mxCell id="tqQRholDofP9-vdfFMWt-5" value="" style="endArrow=classic;html=1;rounded=0;exitX=0.604;exitY=0.984;exitDx=0;exitDy=0;exitPerimeter=0;entryX=0.632;entryY=-0.003;entryDx=0;entryDy=0;entryPerimeter=0;" parent="1" edge="1">
          <mxGeometry width="50" height="50" relative="1" as="geometry">
            <mxPoint x="384.20000000000005" y="221.86" as="sourcePoint" />
            <mxPoint x="384.8799999999999" y="249.865" as="targetPoint" />
          </mxGeometry>
        </mxCell>
        <mxCell id="tqQRholDofP9-vdfFMWt-8" value="" style="endArrow=classic;html=1;rounded=0;exitX=0.368;exitY=0.998;exitDx=0;exitDy=0;exitPerimeter=0;" parent="1" source="zrCdVp1b5vs9OAvNw22L-2" edge="1">
          <mxGeometry width="50" height="50" relative="1" as="geometry">
            <mxPoint x="400" y="380" as="sourcePoint" />
            <mxPoint x="340" y="260" as="targetPoint" />
          </mxGeometry>
        </mxCell>
        <mxCell id="IMqzC0dm7pwFGwkoJkQH-1" value="Calculation&lt;br&gt;Module" style="text;strokeColor=none;align=center;fillColor=none;html=1;verticalAlign=middle;whiteSpace=wrap;rounded=0;" vertex="1" parent="1">
          <mxGeometry x="370" y="257.5" width="60" height="30" as="geometry" />
        </mxCell>
        <mxCell id="IMqzC0dm7pwFGwkoJkQH-6" value="" style="endArrow=classic;html=1;rounded=0;exitX=0.368;exitY=0.998;exitDx=0;exitDy=0;exitPerimeter=0;" edge="1" parent="1">
          <mxGeometry width="50" height="50" relative="1" as="geometry">
            <mxPoint x="291" y="223" as="sourcePoint" />
            <mxPoint x="290" y="270" as="targetPoint" />
          </mxGeometry>
        </mxCell>
        <mxCell id="IMqzC0dm7pwFGwkoJkQH-7" value="" style="rounded=0;whiteSpace=wrap;html=1;fillColor=none;dashed=1;" vertex="1" parent="1">
          <mxGeometry x="40" y="230" width="680" height="140" as="geometry" />
        </mxCell>
      </root>
    </mxGraphModel>
  </diagram>
</mxfile>
